<svg viewBox="0 0 1200 600" xmlns="http://www.w3.org/2000/svg">
  <g fill="none" fill-rule="evenodd">
    <path d="M13.417 436.336L239.94 323.769a8 8 0 0 1 7.12 0l226.523 112.567a8 8 0 0 1 0 14.328L247.06 563.231a8 8 0 0 1-7.12 0L13.417 450.664a8 8 0 0 1 0-14.328z" fill="#4D9CA3"/>
    <path fill="#5FC2CB" d="M244 425l-80-40v-90l80 40z"/>
    <path fill="#69D7E2" d="M244 425l80-40v-90l-80 40z"/>
    <path fill="#96E3EB" d="M164 295l80-40 80 40-80 40z"/>
    <path fill="#5FC2CB" d="M344 475l-80-40v-90l80 40z"/>
    <path fill="#69D7E2" d="M344 475l80-40v-90l-80 40z"/>
    <path fill="#96E3EB" d="M264 345l80-40 80 40-80 40z"/>
    <g>
      <path fill="#5FC2CB" d="M144 475l-80-40v-90l80 40z"/>
      <path fill="#69D7E2" d="M144 475l80-40v-90l-80 40z"/>
      <path fill="#96E3EB" d="M64 345l80-40 80 40-80 40z"/>
    </g>
    <g>
      <path fill="#5FC2CB" d="M244 525l-80-40v-90l80 40z"/>
      <path fill="#69D7E2" d="M244 525l80-40v-90l-80 40z"/>
      <path fill="#96E3EB" d="M164 395l80-40 80 40-80 40z"/>
    </g>
    <g>
      <path fill="#5FC2CB" d="M244 315l-80-40v-90l80 40z"/>
      <path fill="#69D7E2" d="M244 315l80-40v-90l-80 40z"/>
      <path fill="#96E3EB" d="M164 185l80-40 80 40-80 40z"/>
      <path fill="#5FC2CB" opacity=".6" style="mix-blend-mode:multiply" d="M164 165l80-40 80 40-80 40z"/>
      <path fill="#69D7E2" opacity=".4" d="M324 165l-80-40V35l80 40z"/>
      <path fill="#5FC2CB" opacity=".4" d="M164 165l80-40V35l-80 40z"/>
      <path fill="#5FC2CB" opacity=".4" style="mix-blend-mode:soft-light" d="M244 205l-80-40V75l80 40z"/>
      <path fill="#69D7E2" opacity=".4" style="mix-blend-mode:soft-light" d="M244 205l80-40V75l-80 40z"/>
      <path fill="#96E3EB" opacity=".4" style="mix-blend-mode:soft-light" d="M164 75l80-40 80 40-80 40z"/>
      <g>
        <path fill="#5FC2CB" d="M344 365l-80-40v-90l80 40z"/>
        <path fill="#69D7E2" d="M344 365l80-40v-90l-80 40z"/>
        <path fill="#96E3EB" d="M264 235l80-40 80 40-80 40z"/>
      </g>
      <g>
        <path fill="#5FC2CB" d="M104 345l-80-40v-90l80 40z"/>
        <path fill="#69D7E2" d="M104 345l80-40v-90l-80 40z"/>
        <path fill="#96E3EB" d="M24 215l80-40 80 40-80 40z"/>
      </g>
      <g>
        <path fill="#5FC2CB" d="M244 415l-80-40v-90l80 40z"/>
        <path fill="#69D7E2" d="M244 415l80-40v-90l-80 40z"/>
        <path fill="#96E3EB" d="M164 285l80-40 80 40-80 40z"/>
      </g>
    </g>
    <path d="M698.2 400.16c4.267 4.053 6.4 8.64 6.4 13.76 0 4.907-1.76 9.28-5.28 13.12-3.52 3.84-7.627 5.76-12.32 5.76-4.693 0-9.067-1.92-13.12-5.76L599 359.2v54.72c0 6.187-1.92 10.88-5.76 14.08-3.84 3.2-8.64 4.8-14.4 4.8s-10.507-1.6-14.24-4.8c-3.733-3.2-5.6-7.893-5.6-14.08V222.88c0-6.187 1.867-10.88 5.6-14.08 3.733-3.2 8.48-4.8 14.24-4.8s10.56 1.6 14.4 4.8c3.84 3.2 5.76 7.893 5.76 14.08V343.2l68.48-65.6c3.84-3.84 8.213-5.76 13.12-5.76s9.173 1.813 12.8 5.44c3.627 3.627 5.44 7.893 5.44 12.8 0 4.907-2.027 9.387-6.08 13.44l-50.24 46.72 55.68 49.92zm153.92-11.84c3.627 0 6.56 1.387 8.8 4.16 2.24 2.773 3.36 6.507 3.36 11.2 0 6.613-3.947 12.16-11.84 16.64-7.253 4.053-15.467 7.307-24.64 9.76-9.173 2.453-17.92 3.68-26.24 3.68-25.173 0-45.12-7.253-59.84-21.76-14.72-14.507-22.08-34.347-22.08-59.52 0-16 3.2-30.187 9.6-42.56 6.4-12.373 15.413-21.973 27.04-28.8 11.627-6.827 24.8-10.24 39.52-10.24 14.08 0 26.347 3.093 36.8 9.28 10.453 6.187 18.56 14.933 24.32 26.24 5.76 11.307 8.64 24.64 8.64 40 0 9.173-4.053 13.76-12.16 13.76H759c1.28 14.72 5.44 25.547 12.48 32.48 7.04 6.933 17.28 10.4 30.72 10.4 6.827 0 12.853-.853 18.08-2.56 5.227-1.707 11.147-4.053 17.76-7.04 6.4-3.413 11.093-5.12 14.08-5.12zm-55.36-89.28c-10.88 0-19.573 3.413-26.08 10.24-6.507 6.827-10.4 16.64-11.68 29.44h72.32c-.427-13.013-3.627-22.88-9.6-29.6-5.973-6.72-14.293-10.08-24.96-10.08zm170.88 134.72c-15.573 0-29.28-3.307-41.12-9.92-11.84-6.613-20.96-16-27.36-28.16-6.4-12.16-9.6-26.347-9.6-42.56s3.36-30.56 10.08-43.04c6.72-12.48 16.16-22.133 28.32-28.96 12.16-6.827 26.133-10.24 41.92-10.24 8.32 0 16.693 1.173 25.12 3.52s15.84 5.547 22.24 9.6c6.827 4.48 10.24 10.133 10.24 16.96 0 4.693-1.12 8.48-3.36 11.36-2.24 2.88-5.173 4.32-8.8 4.32-2.347 0-4.8-.533-7.36-1.6a64.452 64.452 0 0 1-7.68-3.84c-4.693-2.773-9.173-4.96-13.44-6.56-4.267-1.6-9.173-2.4-14.72-2.4-13.227 0-23.413 4.32-30.56 12.96-7.147 8.64-10.72 21.067-10.72 37.28 0 16 3.573 28.32 10.72 36.96s17.333 12.96 30.56 12.96c5.333 0 10.08-.8 14.24-2.4 4.16-1.6 8.8-3.787 13.92-6.56 3.2-1.92 5.973-3.36 8.32-4.32 2.347-.96 4.693-1.44 7.04-1.44 3.413 0 6.293 1.493 8.64 4.48 2.347 2.987 3.52 6.72 3.52 11.2 0 3.627-.8 6.773-2.4 9.44-1.6 2.667-4.213 5.067-7.84 7.2-6.613 4.267-14.293 7.627-23.04 10.08-8.747 2.453-17.707 3.68-26.88 3.68zm210.56-45.44c3.627 0 6.56 1.387 8.8 4.16 2.24 2.773 3.36 6.507 3.36 11.2 0 6.613-3.947 12.16-11.84 16.64-7.253 4.053-15.467 7.307-24.64 9.76-9.173 2.453-17.92 3.68-26.24 3.68-25.173 0-45.12-7.253-59.84-21.76-14.72-14.507-22.08-34.347-22.08-59.52 0-16 3.2-30.187 9.6-42.56 6.4-12.373 15.413-21.973 27.04-28.8 11.627-6.827 24.8-10.24 39.52-10.24 14.08 0 26.347 3.093 36.8 9.28 10.453 6.187 18.56 14.933 24.32 26.24 5.76 11.307 8.64 24.64 8.64 40 0 9.173-4.053 13.76-12.16 13.76h-94.4c1.28 14.72 5.44 25.547 12.48 32.48 7.04 6.933 17.28 10.4 30.72 10.4 6.827 0 12.853-.853 18.08-2.56 5.227-1.707 11.147-4.053 17.76-7.04 6.4-3.413 11.093-5.12 14.08-5.12zm-55.36-89.28c-10.88 0-19.573 3.413-26.08 10.24-6.507 6.827-10.4 16.64-11.68 29.44h72.32c-.427-13.013-3.627-22.88-9.6-29.6-5.973-6.72-14.293-10.08-24.96-10.08z" fill="#252525"/>
  </g>
</svg>
